<svg id="Capa_1" enable-background="new 0 0 510 510" height="512" viewBox="0 0 510 510" width="512" xmlns="http://www.w3.org/2000/svg"><g><path d="m84.5 0v80h-25v30h25v34h-25v30h25v34h-25v30h25v34h-25v30h25v34h-25v30h25v34h-25v30h25v80h366v-510zm336 480h-306v-50h25v-30h-25v-34h25v-30h-25v-34h25v-30h-25v-34h25v-30h-25v-34h25v-30h-25v-34h25v-30h-25v-50h306z"/><path d="m171.5 304h216v30h-216z"/><path d="m171.5 368h216v30h-216z"/><path d="m279.522 268.098 78.467-78.096c24.417-24.416 24.417-64.145 0-88.563-21.763-21.761-54.851-23.76-78.634-8.1-23.783-15.66-56.871-13.662-78.635 8.101-24.416 24.417-24.416 64.146.048 88.61zm-57.588-145.445c12.737-12.737 33.395-12.742 46.136 0l11.285 11.286 11.285-11.286c12.713-12.713 33.37-12.766 46.136 0 12.72 12.72 12.72 33.417.025 46.111l-57.324 57.053-57.544-57.028c-12.719-12.72-12.719-33.416.001-46.136z"/></g></svg>